<svg xmlns="http://www.w3.org/2000/svg" viewBox="0 0 1024 1024" xml:space="preserve"><path d="M 885.138 625.12 c -7.378 7.563 -9.04 17.078 -9.644 26.506 c -1.31 20.467 0.324 40.918 1.31 61.382 c 1.05 21.755 2.268 43.668 -4.665 64.882 c -3.33 10.19 -8.655 19.081 -17.798 25.247 c -12.814 8.64 -19.694 8.35 -31.06 -1.43 c -2.062 0.5 -2.485 2.508 -3.45 3.967 c -3.892 5.894 -8.26 11.283 -14.553 14.824 c -12.087 6.802 -24.373 3.122 -30.654 -9.222 c -0.504 -0.99 -0.978 -1.995 -1.67 -3.409 c -3.46 4.865 -5.981 9.77 -9.787 13.736 c -6.093 6.349 -12.907 11.028 -22.105 7.223 c -9.005 -3.725 -13.596 -10.96 -14.197 -20.602 c -0.341 -5.456 -0.323 -10.94 1.346 -17.772 c -59.596 38.6 -124.213 54.844 -193.334 53.703 c -68.918 -1.137 -133.065 -19.225 -191.594 -56.787 c -1.492 2.55 -0.825 4.784 -0.546 7.012 c 0.807 6.46 1.158 12.917 -0.255 19.354 c -1.873 8.53 -7.456 13.58 -15.5 15.97 c -7.436 2.21 -13.233 -1.197 -18.438 -6.148 c -4.383 -4.17 -7.142 -9.555 -10.93 -14.716 c -2.486 2.996 -3.732 6.43 -6.366 8.959 c -7.363 7.069 -16.76 8.529 -25.663 3.544 c -5.802 -3.249 -10.135 -8.03 -13.904 -13.414 c -1.41 -2.014 -2.295 -4.436 -4.347 -5.959 c -0.387 0.137 -0.776 0.158 -0.98 0.363 c -8.936 8.975 -13.941 9.84 -25.333 4.174 c -15.102 -7.512 -21.763 -21.002 -25.197 -36.49 c -4.042 -18.226 -3.147 -36.71 -2.543 -55.212 c 0.763 -23.406 4.192 -46.81 0.456 -70.258 c -1.858 -11.656 -7.135 -19.988 -18.729 -24.898 c -20.288 -8.593 -39.523 -19.31 -56.4 -33.747 c -6.993 -5.98 -13.305 -12.582 -17.754 -20.79 c -4.981 -9.189 -5.443 -18.79 -2.524 -28.572 c 3.328 -11.148 12.18 -15.825 24.876 -13.36 c 13.055 2.535 24.863 8.48 36.844 13.877 c 16.724 7.533 33.479 14.985 51.728 18.027 c 6.878 1.147 13.853 1.921 20.887 1.472 c 3.318 -0.211 5.356 -1.406 6.492 -4.924 c 11.113 -34.42 34.317 -58.363 65.658 -75.154 c 9.415 -5.044 19.126 -9.459 29.266 -12.8 c 4.15 -1.367 5.112 -3.27 3.419 -7.318 c -4.11 -9.827 -8.087 -19.72 -9.298 -30.458 c -1.21 -10.718 5.164 -25.975 20.835 -26.57 c -1.35 -5.659 -1.461 -11.605 -2.853 -16.958 c -1.77 -6.81 -2.945 -13.714 -3.605 -20.543 c -0.968 -10.007 -0.322 -20.167 -0.424 -30.261 c -0.06 -5.9 -0.756 -11.843 -0.241 -17.686 c 0.87 -9.858 0.657 -19.919 3.86 -29.452 c 2.453 -7.3 2.243 -15.141 4.839 -22.386 c 2.457 -6.86 6.451 -12.937 9.746 -19.37 c 3.884 -7.584 10.762 -12.564 15.402 -19.413 c 1.606 -2.372 3.677 -4.307 6.046 -5.9 c 10.327 -6.944 20.044 -15.248 31.227 -20.305 c 7.354 -3.325 14.197 -7.839 22.26 -10.287 c 11.043 -3.353 22.792 -4.62 33.204 -10.105 c 2.985 -1.572 6.516 -1.02 9.77 -1.586 c 11.397 -1.984 22.654 -4.434 34.417 -4.843 c 11.396 -0.396 22.849 0.164 34.222 -1.037 c 0.494 -0.052 1.043 -0.212 1.48 -0.065 c 13.55 4.563 27.952 3.564 41.913 6.638 c 18.528 4.078 35.44 11.277 52.07 19.315 c 10.423 5.038 20.055 12.187 28.192 20.819 c 5.55 5.889 10.98 11.893 16.424 17.882 c 0.773 0.85 1.441 1.848 1.95 2.88 c 8.752 17.782 17.138 35.898 19.448 55.687 c 1.131 9.697 3.575 19.337 2.756 29.488 c -0.453 5.618 0.646 11.773 0.544 17.668 c -0.081 4.712 0.153 9.647 -0.684 14.103 c -1.46 7.768 0.223 15.897 -3.087 23.39 c -1.397 3.16 -0.127 6.604 -0.406 9.91 c -0.099 1.176 0.872 1.617 1.75 2.164 c 13.989 8.707 17.622 17.235 14.509 33.513 c -1.976 10.33 -5.771 20.14 -8.462 30.262 c -0.251 0.947 -0.38 1.927 -0.596 3.055 c 2.501 1.677 5.283 2.204 7.939 3.041 c 27.622 8.71 53.387 20.761 74.432 41.325 c 14.352 14.023 24.542 30.638 30.492 49.756 c 1.365 4.388 3.391 5.746 8.033 6.009 c 23.03 1.305 44.027 -5.692 64.618 -14.768 c 13.25 -5.84 26.189 -12.432 40.102 -16.688 c 3.36 -1.028 6.737 -1.825 10.267 -1.964 c 14.01 -0.55 21.45 6.653 22.797 20.668 c 1.666 17.319 -7.476 29.127 -19.074 39.749 c -16.022 14.673 -34.94 24.856 -54.348 34.235 c -4.924 2.38 -10.329 3.893 -14.828 7.848 M 403.97 578.591 c 5.95 15.127 12.624 30.052 24.43 41.486 c 18.479 17.896 38.366 34.077 62.072 44.886 c 16.865 7.69 34.48 11.577 52.944 9.371 c 29.809 -3.562 53.07 -19.194 72.903 -40.836 c 14.225 -15.523 26.259 -32.725 38.67 -49.655 c 8.012 -10.93 13.386 -22.98 16.673 -36.03 c 4.027 -15.992 5.899 -32.367 8.581 -48.601 c 3.875 -23.45 9.081 -46.695 11.096 -70.426 c 0.46 -5.418 1.838 -10.994 0.505 -16.335 c -2.013 -8.062 -0.27 -16.131 -0.648 -24.18 c -0.273 -5.816 0.279 -12.164 -0.515 -17.618 c -0.968 -6.645 -0.585 -13.216 -0.608 -19.638 c -0.03 -9.06 -1.968 -17.77 -2.994 -26.589 c -1.528 -13.14 -8.006 -25.022 -11.993 -37.565 c -0.198 -0.622 -0.483 -1.343 -0.96 -1.73 c -6.686 -5.432 -7.91 -14.812 -15.152 -20.09 c -6.89 -5.019 -11.51 -12.644 -19.165 -17.166 c -3.342 -1.974 -7.479 -2.081 -10.18 -4.848 c -3.07 -3.144 -7.029 -4.31 -10.883 -5.843 c -8.212 -3.267 -16.872 -5.041 -25.28 -7.653 c -2.692 -0.836 -5.467 -1.759 -8.337 -1.065 c -3.237 0.783 -6.307 -0.004 -9.32 -0.865 c -12.92 -3.693 -26.253 -4.263 -39.512 -5.425 c -2.987 -0.262 -5.85 0.632 -8.914 0.372 c -8.184 -0.693 -16.524 -1.913 -24.611 -0.032 c -10.332 2.404 -21.365 0.545 -31.253 5.355 c -0.277 0.135 -0.664 0.025 -0.99 0.083 c -14.07 2.47 -27.68 6.306 -40.914 11.876 c -8.423 3.545 -15.606 9.433 -24.503 12 c -2.96 0.853 -5.442 2.98 -7.534 5.54 a 357 357 0 0 1 -13.899 15.997 c -4.26 4.623 -7.827 9.514 -8.361 16.01 c -0.142 1.728 -0.715 3.282 -1.586 4.684 c -4.62 7.429 -3.683 16.285 -6.066 24.336 c -1.568 5.301 -1.815 11.426 -2.315 17.173 c -1.11 12.763 -1.706 25.581 -2.339 38.39 c -0.82 16.617 0.352 33.193 0.939 49.71 c 0.598 16.848 4.445 33.58 8.046 50.17 c 7.716 35.55 19.387 69.889 31.973 104.751 M 760.875 739.99 c 8.217 -7.686 16.902 -5.649 25.17 -0.774 c 1.798 -1.49 1.997 -3.062 2.418 -4.454 c 2.79 -9.243 5.48 -18.516 8.228 -27.771 c 0.83 -2.798 2.27 -5.206 5.653 -3.994 c 3.106 1.113 2.62 3.821 1.885 6.355 c -5.016 17.264 -10.063 34.52 -15.04 51.795 c -3.225 11.19 -6.606 22.346 -9.424 33.64 c -1.761 7.057 2.476 16.206 8.004 19.125 c 6.12 3.231 11.566 1.785 18.38 -4.509 c 5.796 -5.353 9.617 -11.891 12.121 -19.246 c 2.63 -7.726 2.225 -8.358 -5.61 -9.87 c -2.445 -0.472 -4.977 -0.55 -7.384 -1.15 c -4.199 -1.045 -8.802 -0.047 -13.41 -2.08 c 3.302 -4.235 7.283 -5.168 11.446 -5.66 c 7.002 -0.826 12.515 2.157 17.79 7.932 c 1.38 -9.735 4.443 -18.195 5.025 -27.29 c -7.525 -3.608 -15.904 -1.65 -24.445 -4.47 c 8.725 -7.85 17.086 -6.469 25.628 -2.434 c 1.789 -2.266 1.85 -4.824 2.38 -7.204 c 1.378 -6.168 2.661 -12.358 4.032 -18.527 c 0.548 -2.47 1.768 -4.68 4.662 -4.092 c 2.856 0.58 3.2 3.132 2.858 5.597 c -0.365 2.634 -0.91 5.247 -1.454 7.853 c -3.977 19.058 -7.99 38.107 -11.954 57.167 c -1.1 5.29 1.237 9.438 4.86 12.906 c 3.479 3.33 7.453 1.997 11.262 0.558 c 14.426 -5.45 23.32 -24.688 22.55 -37.595 c -8.02 -3.055 -16.858 -2.34 -26.197 -4.705 c 9.47 -8.357 18.254 -6.776 27.344 -1.119 c 0.418 -2.024 0.923 -3.464 0.985 -4.923 c 0.593 -13.992 0.35 -27.973 -0.349 -41.963 c -1.036 -20.757 -3.78 -41.48 -0.606 -62.318 c 2.426 -15.926 8.244 -28.894 24.679 -35.137 c 8.208 -3.118 15.934 -7.59 23.69 -11.796 c 13.52 -7.332 26.406 -15.667 37.118 -26.846 c 8.314 -8.677 14.386 -18.266 11.666 -31.325 c -1.798 -8.636 -6.946 -12.437 -15.776 -10.744 c -15.595 2.99 -29.373 10.639 -43.646 16.981 c -22.734 10.102 -45.97 17.564 -71.333 16.478 c -22.544 -0.966 -42.59 6.625 -60.651 19.608 c -17.843 12.826 -30.673 28.966 -32.858 51.878 c -0.963 10.095 -2.42 20.146 -3.76 30.202 c -1.7 12.757 -5.242 25.009 -10.971 36.83 c 10.954 -0.844 16.41 2.293 17.577 9.78 c -1.67 1.08 -3.236 0.031 -4.776 -0.348 c -4.04 -0.992 -8.052 -2.1 -12.05 -3.247 c -1.824 -0.523 -3.286 -0.42 -4.15 1.517 c -5.222 11.693 -11.203 23.146 -12.998 36.031 c -0.954 6.853 1.34 10.74 6.707 13.034 c 5.576 2.382 10.577 1.308 14.888 -3.515 c 4.817 -5.387 8.441 -11.56 11.202 -18.23 c 3.249 -7.847 6.338 -15.762 9.715 -23.553 c 1.287 -2.97 1.992 -7.97 6.766 -6.044 c 4.822 1.945 1.83 5.98 0.629 9.016 c -6.487 16.402 -14.224 32.328 -18.419 49.591 c -3.347 13.777 -6.427 27.562 -5.674 41.892 c 0.308 5.859 3.628 9.484 8.564 11.897 c 4.97 2.43 8.89 -0.11 12.06 -3.437 c 9.53 -10.003 14.527 -22.437 18.857 -35.528 c -7.905 -3.926 -16.476 -1.874 -24.975 -4.827 c 8.898 -8.274 17.578 -6.455 26.756 -1.453 c 2.13 -7.142 4.103 -13.823 6.117 -20.492 c 3.155 -10.446 3.042 -10.259 -7.797 -11.863 c -4.655 -0.688 -9.711 0.485 -13.965 -3.13 m -515.023 22.817 c 1.206 5.194 1.674 10.59 3.856 15.74 c 9.947 -8.792 22.704 -9.272 28.038 -0.988 c -3.205 1.204 -6.45 1.608 -9.715 1.634 c -4.717 0.036 -9.214 1.267 -13.781 2.161 c -3.329 0.653 -4.325 2.242 -3.334 5.668 c 2.961 10.234 8.013 19.014 16.798 25.301 c 8.607 6.16 18.222 2.926 21.608 -7.076 c 1.783 -5.265 1.532 -10.42 -0.043 -15.685 c -3.767 -12.602 -7.388 -25.247 -11.08 -37.87 c -4.065 -13.903 -8.164 -27.796 -12.2 -41.708 c -0.827 -2.852 -1.303 -5.985 2.46 -6.978 c 3.554 -0.938 4.382 2.134 5.313 4.647 c 0.346 0.934 0.564 1.915 0.843 2.874 c 2.277 7.833 4.48 15.688 6.89 23.48 c 0.552 1.786 0.49 4.06 2.575 5.105 c 13.347 -5.341 21.62 -4.638 25.321 2.14 c -0.941 1.27 -2.378 0.912 -3.647 1.088 c -5.434 0.752 -10.89 1.375 -16.29 2.318 c -1.77 0.309 -4.489 0.589 -3.668 3.583 c 2.485 9.064 5.133 18.084 7.74 27.196 c 13.3 -5.564 21.772 -4.882 25.782 1.727 c -0.84 1.383 -2.324 1.087 -3.569 1.254 c -5.11 0.689 -10.23 1.297 -15.35 1.917 c -3.646 0.442 -4.997 2.298 -3.656 5.845 c 3.545 9.376 7.5 18.566 13.642 26.584 c 3.928 5.128 7.454 6.252 12.469 4.546 c 12.09 -4.113 12.21 -4.15 12.13 -13.006 c -0.172 -18.895 -4.994 -36.909 -11.15 -54.544 c -3.893 -11.149 -8.86 -21.92 -13.239 -32.903 c -1.106 -2.775 -3.614 -6.324 0.744 -8.15 c 4.583 -1.918 5.375 2.51 6.734 5.376 c 1.212 2.554 2.12 5.25 3.25 7.844 c 4.712 10.818 8.331 22.181 15.704 31.68 c 2.685 3.46 5.461 6.799 10.262 7.269 c 9.642 0.943 15.16 -6.05 13.108 -16.696 c -1.845 -9.575 -6.073 -18.31 -9.813 -27.203 c -3.688 -8.77 -3.742 -8.618 -12.863 -5.996 c -3.49 1.003 -6.95 3.157 -10.894 1.666 c 1.137 -5.723 4.875 -8.98 11.654 -9.906 c 3.401 -0.465 4.983 -1.547 3.386 -5.162 c -7.456 -16.882 -9.046 -35.003 -11.19 -53.018 c -1.379 -11.58 -2.178 -23.654 -8.787 -33.531 c -20.23 -30.236 -48.93 -46.165 -85.342 -46.408 c -14.977 -0.1 -29.489 -1.472 -43.793 -5.633 c -16.39 -4.767 -31.528 -12.58 -47.107 -19.332 c -7.457 -3.233 -14.812 -6.957 -23.15 -7.57 c -6.856 -0.503 -14.509 3.07 -15.82 8.129 c -1.768 6.83 -2.53 13.876 1.323 20.393 c 3.488 5.9 7.505 11.47 12.821 15.868 c 18.336 15.166 38.675 27.15 60.308 36.885 c 10.278 4.625 16.24 12.324 19.133 22.872 c 5.304 19.34 3.593 39.024 2.512 58.599 c -1.011 18.304 -1.807 36.592 -1.454 54.92 c 0.1 5.25 1.253 5.995 6.048 3.84 c 6.01 -2.703 11.944 -2.7 17.85 0.1 c 1.552 0.736 3.55 1.346 3.223 3.935 c -4.729 1.84 -9.815 1.345 -14.68 2.227 c -11.76 2.133 -11.86 2.237 -8.423 13.809 c 3.25 10.942 8.82 20.143 19.609 25.188 c 3.949 1.847 8.246 3.814 12.183 0.405 c 4.379 -3.792 6.503 -8.483 5.14 -14.683 c -4.395 -19.988 -8.492 -40.041 -12.67 -60.076 c -0.686 -3.291 -2.731 -7.693 2.313 -8.681 c 5.019 -0.983 4.688 3.925 5.478 7.164 c 1.794 7.35 2.715 14.923 5.276 22.454 c 9.003 -4.174 17.393 -5.387 25.821 2.5 c -5.044 2.08 -9.626 1.377 -13.924 2.061 c -10.79 1.719 -10.82 1.524 -8.713 12.81 m 435.197 28.685 c 2.325 -0.63 4.603 -0.24 6.923 0.163 c 5.493 0.952 10.266 0.32 14.548 -4.205 c 3.796 -4.011 9.032 -6.232 14.793 -6.426 c 2.365 -0.08 4.652 -0.409 6.8 -1.407 c 3.15 -1.462 4.233 -4.049 3.881 -7.373 c -0.41 -3.89 -3.418 -2.87 -5.744 -2.967 c -12.717 -0.531 -20.763 -8.96 -20.589 -21.524 c 0.056 -4.04 0.745 -7.91 1.985 -11.762 c 4.454 -13.834 10.643 -26.953 16.48 -40.21 c 5.104 -11.59 6.728 -23.565 5.115 -36.05 c -0.793 -6.147 -0.21 -12.21 3.481 -17.222 c 2.289 -3.108 3.625 -6.198 4.15 -9.91 c 2.497 -17.66 10.357 -32.449 23.456 -44.634 c 6.996 -6.508 14.294 -12.603 22.606 -17.212 c 8.251 -4.575 12.072 -10.104 11.38 -20.374 c -0.808 -11.975 -4.972 -20.91 -14.128 -28.358 c -7.077 -5.756 -15.191 -10.287 -20.979 -17.637 c -7.89 -10.02 -16.977 -18.365 -30.35 -20.264 c -1.907 -0.27 -3.988 -1.772 -5.489 0.402 c -1.571 2.276 0.608 3.674 1.831 5.095 c 7.18 8.338 14.794 16.263 22.683 23.937 c 13.993 13.61 19.45 29.677 14.532 49.061 c -4.97 19.589 -16.436 35.223 -29.866 49.49 c -29.618 31.462 -65.512 53.79 -105.167 70.295 c -25.196 10.486 -51.29 17.689 -78.62 19.749 c -7.272 0.548 -7.483 0.477 -7.44 7.9 c 0.192 32.99 0.416 65.98 0.631 98.97 c 0.019 2.834 0.194 5.672 0.065 8.498 c -0.213 4.66 1.997 5.69 6.237 4.954 c 6.345 -1.102 12.17 -3.458 17.733 -6.54 c 6.352 -3.52 13.1 -4.78 20.263 -3.911 c 15.286 1.852 30.62 0.776 45.934 0.721 c 3.944 -0.014 8.108 -0.077 11.629 -2.306 c 6.118 -3.875 12.91 -6.191 19.62 -8.666 c 3.34 -1.232 6.501 -2.7 9.113 -5.051 c 3.366 -3.03 7.164 -4.788 12.503 -5.226 m -165.553 25.647 c 1.622 0.385 3.236 0.803 4.866 1.148 c 7.282 1.542 8.405 0.606 8.604 -6.921 c 0.9 -34.149 0.58 -68.305 0.778 -102.457 c 0.028 -4.754 -1.674 -6.547 -6.37 -6.616 c -5.98 -0.087 -12.007 -0.38 -17.92 -1.232 c -53.461 -7.709 -100.725 -29.327 -142.064 -63.952 c -7.327 -6.138 -14.144 -12.885 -21.724 -19.833 c -0.248 3.297 0.85 5.585 0.526 8.125 c -0.986 7.743 -0.184 15.264 4.139 22.128 c 4.56 7.241 4.857 15.06 4.295 23.523 c -0.75 11.293 -2.465 22.919 3.38 33.77 c 4.188 7.774 7.24 16.095 10.242 24.397 c 3.814 10.55 7.55 20.907 1.585 32.238 c -2.827 5.372 1.53 11.584 7.732 12.496 c 5.923 0.87 11.824 1.89 17.84 2.19 c 6.497 0.327 12.682 1.495 18.373 5.445 c 5.065 3.515 11.223 5.151 17.485 5.364 c 4.385 0.148 8.536 1.115 12.763 2.117 c 8.896 2.108 17.478 6.776 26.512 6.618 c 12.965 -0.226 23.186 4.34 32.552 12.603 c 4.493 3.963 9.858 6.78 16.406 8.85 m 233.356 -282.446 c -1.174 -3.538 -3.081 -6.74 -5.6 -9.372 c -8.515 -8.895 -17.167 -17.66 -25.906 -26.335 c -2.403 -2.384 -6.09 -1.464 -7.889 1.763 c -0.88 1.578 -1.472 3.366 -1.913 5.13 c -1.367 5.464 -3.152 10.407 -6.995 15.018 c -3.523 4.226 -7.725 7.77 -11.04 12.124 c -3.697 4.856 -0.623 13.424 5.264 14.806 c 5.784 1.357 7.495 3.034 5.931 8.51 c -3.98 13.933 -9.342 27.269 -18.267 39.012 c -4.568 6.01 -11.513 10.565 -13.06 18.519 c -1.558 8.016 -5.261 14.59 -10.984 20.268 c -5.603 5.56 -10.125 11.887 -12.698 19.456 c -0.582 1.713 -1.672 3.492 -0.089 5.128 c 1.624 1.677 3.645 1.33 5.583 0.542 a 41 41 0 0 0 3.612 -1.703 c 21.33 -11.233 40.794 -25.132 58.508 -41.441 c 12.437 -11.452 23.42 -24.146 31.095 -39.377 c 6.633 -13.167 10.22 -26.74 4.448 -42.048 m -399.184 -19.76 c -0.184 -0.982 -0.339 -1.97 -0.556 -2.944 c -0.376 -1.685 0.277 -4.002 -2.117 -4.578 c -2.522 -0.606 -3.97 1.102 -5.197 3.02 c -1.973 3.084 -3.895 6.206 -5.999 9.199 c -4.123 5.866 -8.396 11.74 -10.341 18.689 c -6.253 22.331 1.34 41.536 14.075 59.445 c 0.47 0.66 1.145 1.218 1.822 1.681 c 3.502 2.391 6.353 1.547 7.76 -2.528 c 2.294 -6.651 4.019 -13.358 2.132 -20.527 c -0.796 -3.026 -1.157 -6.241 -1.195 -9.377 c -0.101 -8.488 2.715 -10.754 10.866 -9.152 c 1.632 0.32 3.262 0.667 4.908 0.902 c 2.004 0.287 3.702 -0.448 4.688 -2.18 c 2.218 -3.895 3.958 -8.274 0.964 -12.198 c -4.891 -6.41 -9.843 -13.001 -15.89 -18.216 c -3.597 -3.101 -6.203 -5.567 -5.92 -11.237 m -44.802 61.726 c 4.474 4.961 9.148 9.588 16.378 9.99 c 0.122 -0.287 0.268 -0.458 0.233 -0.574 c -1.078 -3.49 -2.18 -6.975 -3.266 -10.464 c -6.381 -20.509 -4.316 -39.743 8.436 -57.482 c 5.258 -7.313 9.832 -15.072 13.62 -23.258 c 0.804 -1.736 1.929 -3.632 -0.13 -5.456 c -2.02 -1.79 -4.077 -2.775 -6.796 -1.51 c -2.621 1.218 -4.761 3.01 -6.822 4.982 c -14.74 14.104 -25.388 31.148 -34.898 48.953 c -3.706 6.94 -3.443 14.104 0.765 20.967 c 3.185 5.195 8.14 8.766 12.48 13.852 m 97.345 58.573 c -2.687 -4.932 -4.702 -10.289 -9.347 -13.941 c -3.367 -2.648 -6.973 -2.863 -10.792 -1.417 c -3.634 1.375 -4.73 4.569 -4.964 7.973 c -0.366 5.297 0.323 10.252 5.538 13.4 c 3.259 1.969 6.244 4.386 9.478 6.398 c 4.344 2.704 7.758 2.097 11.09 -1.388 c 3.6 -3.767 2.595 -7.118 -1.003 -11.025 m -39.316 -121.604 c 3.884 7.61 8.294 14.827 15.655 21.633 c -0.885 -6.753 -3.158 -11.59 -4.48 -16.676 c -1.517 -5.827 -3.887 -11.087 -7.687 -15.963 c -6.405 -8.219 -8.932 -18.09 -10.037 -28.332 c -0.105 -0.969 -0.409 -2.05 1.506 -2.452 c 2.46 6.088 3.747 12.782 7.044 18.216 c 2.225 -15.069 -9.561 -23.215 -17.138 -33.61 c 2.19 8.69 5.843 17.024 6.174 26.05 c 0.399 10.91 3.952 20.825 8.963 31.134 m 328.668 -19.524 c -3.593 8.425 -3.548 17.459 -4.623 26.353 c 1.562 -1.689 2.778 -3.454 3.824 -5.315 c 8.026 -14.266 13.102 -29.296 12.633 -45.962 c -0.203 -7.236 1.972 -14.286 2.907 -21.553 c -3.239 6.124 -10.234 10.14 -10.062 18.137 c 2.047 -1.216 0.378 -4.398 3.778 -5.328 c 0.782 12.14 -2.223 22.908 -8.457 33.668 M 354.55 425.315 c -0.772 -2.296 -2.38 -4 -4.759 -3.366 c -2.154 0.575 -2.354 3.043 -2.51 5.022 c -1.02 12.968 2.958 24.552 9.973 35.25 c 0.538 0.82 0.813 2.261 2.84 1.711 c -1.812 -12.614 -3.623 -25.224 -5.544 -38.617 m -13.846 -12.024 c -4.688 7.84 -4.014 21.045 1.567 25.816 c 1.572 -8.375 -3.74 -19.332 8.799 -23.187 c -0.554 -6.416 -3.035 -8.043 -7.512 -4.998 c -0.823 0.56 -1.583 1.211 -2.854 2.37 m 364.493 -13.92 c -0.462 2.379 -1.846 4.968 0.46 6.991 c 4.723 4.148 5.258 9.73 5.578 15.385 c 0.174 3.088 0.03 6.193 0.03 10.242 c 2.603 -4.765 3.458 -9.12 4.13 -13.43 c 0.74 -4.754 1.157 -9.77 -1.547 -14.046 c -1.846 -2.919 -3.333 -7.138 -8.651 -5.142 m -2.434 14.125 c -1.274 6.939 -1.101 7.562 2.744 9.918 c 1.072 -6.232 0.544 -8.453 -2.744 -9.918"/><path d="M481.862 412.069c8.502 6.995 8.182 9.088-1.385 13.99-9.786 5.014-20.315 6.187-30.99 5.76-8.94-.36-14.422-8.687-12.236-17.46.275-1.105.513-2.219.899-3.893-10.473-.252-19.016 4.843-28.69 8.82 10.145-14.29 48.212-24.875 72.402-7.217m-3.857 5.787c-4.344-3.344-9.094-5.652-15.333-6.13 2.02 5.422.877 10.27-1.098 15.347 6.228-.69 10.99-3.286 15.672-6.052.97-.572 2.092-1.258.76-3.165m111.063 12.411c-6.891-1.18-12.928-3.463-18.532-6.844-4.822-2.908-5.184-5.522-1.152-9.39 6.462-6.199 14.492-9.504 23.103-10.964 19.01-3.223 36.21 1.613 51.743 12.792.473.34.703 1.02.775 2.225-9.497-3.338-18.472-8.386-29.087-8.622.653 3.465 2.188 6.16 1.901 9.229-.666 7.12-6.65 12.401-14.415 12.507-4.65.063-9.307-.008-14.336-.933m-2.1-18.583c-4.33 1.592-8.446 3.55-12.552 7.146 6.117 3.497 11.75 6.563 19.477 8.053-3.676-5.774-3.894-10.89-1.59-16.624-2.147.546-3.403.865-5.335 1.425m3.008-72.558c-5.483.066-10.47.18-15.458.163-2.886-.01-5.4-1.252-6.363-3.976-1.02-2.878 1.724-4.078 3.553-5.3 10.041-6.704 20.77-9.098 32.705-5.635 18.182 5.276 32.582 16.158 45.332 29.643.667.705 1.427 1.438 1.11 2.962-1.845 1.273-3.544-.065-5.232-.822-8.643-3.873-17.075-8.21-25.963-11.543-9.42-3.532-19.042-5.88-29.684-5.492M409.34 360.321c11.09-14.48 23.84-26.17 41.997-29.98 11.107-2.331 21.506-.09 30.787 6.628 1.584 1.147 3.537 2.255 2.893 4.74-.568 2.191-2.368 3.17-4.375 3.638-1.767.412-3.672.996-5.394.727-23.49-3.67-43.474 4.727-62.172 17.763-1.724 1.202-3.421 2.74-6.113 2.323-.923-2.472 1.187-3.824 2.378-5.839M605.84 573.786c1.92-1.084 3.478-2.059 5.115-2.876 2.294-1.146 4.863-2.387 6.415.815 1.486 3.066-1.228 4.137-3.25 5.113-7.502 3.623-15.178 6.877-23.168 9.246-27.006 8.007-54.467 9.97-82.443 6.569-15.016-1.826-30.04-3.503-44.907-6.306-6.408-1.208-12.385-3.83-18.312-6.472-2.19-.976-4.459-2.378-3.021-5.277 1.25-2.52 3.495-1.898 5.65-1.003 17.612 7.322 35.897 12.443 54.81 14.529 35.37 3.9 70.193 2.658 103.111-14.338m-37.93-296.918c9.617 2.475 18.98 4.394 27.562 9.118-46.004-8.046-91.804-11.251-137.899 3.717 10.056-14.274 68.805-20.71 110.337-12.835M537.999 520c-10.226 6.487-20.213 7.252-30.27.6-1.222-.81-2.366-.84-3.755-.702-6.966.692-13.072-1.763-18.718-5.539-1.973-1.32-3.883-3.18-3.12-5.747.787-2.644 3.478-2.759 5.83-2.89 8.886-.5 16.881 4.004 20.444 11.59.73 1.557 2.079 2.076 3.446 2.63 7.874 3.187 15.584 2.753 23.12-1.128 1.04-.536 1.93-1.157 2.538-2.268 3.989-7.288 13.51-11.97 21.667-10.755 1.9.283 3.545.866 4.283 2.884.795 2.173-.534 3.54-1.915 4.724-5.55 4.757-12.066 6.827-19.327 6.525-1.298-.053-2.57-.774-4.223.076"/><path d="M561.412 407.17c-.888.723-1.49 1.333-2.432 1.128 1.709-9.425 20.666-22.748 36.118-25.386 23.024-3.93 46.465 10.147 56.284 24.083-2.232 1.069-3.363-.898-4.72-1.799-8.63-5.727-17.555-10.871-27.583-13.724-20.919-5.951-38.953.195-55.218 13.459-.772.63-1.472 1.347-2.45 2.239m-129.658-20.643c24.4-8.768 58.472 3.255 64.364 23.782-30.625-28.41-61.198-24.942-92.137-1.66.85-6.156 13.302-15.752 27.773-22.122m58.864-85.787c-7.802 1.397-15.17 2.692-23.691 4.19 16.875-13.841 95.22-15.945 117.982-3.497-31.276-3.429-62.559-4.63-94.291-.693m78.675 319.666c-27.413 14.579-60.867 8.483-74.493-5.339 29.337 10.384 56.977 8.753 84.312-2.515-2.187 4.103-6.146 5.503-9.819 7.854m-139.487-32.54c-3.423-8.31-2.648-15.776 3.16-22.199 3.923-4.34 8.805-7.194 15.865-6.204-15.372 8.846-17.081 21.768-11.066 37.546-5.198-2.033-6.084-5.755-7.959-9.143m190.477 4.369c.528-2.753 1.06-5.187 1.658-7.605 2.627-10.636-.872-18.931-9.57-25.286-1.162-.849-2.698-1.358-3.133-2.995 5.136-1.71 13.183 2.336 17.227 8.637 5.118 7.972 3.107 21.553-4.072 27.584-.722.607-1.386.88-2.11-.335M473.593 515.25c.993 1.925 2.39 3.267 2.452 5.23-5.847.145-11.976-6.355-12.301-12.999-.38-7.743 6.39-14.647 15.986-15.028-5.9 6.874-12.489 13.25-6.137 22.797m109.648-2.322c-2.629 3.923-5.392 7.114-10.9 8.282 1.406-5.555 6.022-9.337 5.435-14.92-.604-5.748-5.67-8.692-8.65-14.267 5.51.328 9.251 2.42 12.095 5.796 3.657 4.343 4.965 9.328 2.02 15.109m-37.462-85.788c2.337-1.46 1.438.653 1.552 1.284 2.118 11.747 2.357 23.746 4.932 35.448 1.516 6.89 3.537 13.598 5.62 20.27-12.09-17.106-12.55-36.777-12.104-57.001m219.048 262.784c-6.433 2.04-12.482 3.955-19.313 6.118.69-1.36.79-1.949 1.128-2.165 23.145-14.816 47.613-22.899 75.16-14.2 9.421 2.975 17.224 8.582 23.557 16.154 1.546 1.848 3.44 3.583 3.846 6.552-2.288.175-3.343-1.538-4.572-2.612-16.09-14.058-35.086-17.183-55.54-14.91-8.114.902-16.056 2.642-24.266 5.063m52.167-95.902c-4.904 15.872-1.898 30.305 5.91 44.036 5.638 9.914 12.978 18.538 20.888 26.67 1.925 1.98 4.43 3.395 6.54 5.198-1.96 2.096-2.819 1.627-3.448 1.236-19.002-11.81-34.226-26.72-38.617-49.718-2.641-13.836.886-26.416 10.043-37.273.532-.63 1.118-1.25 2.69-1.043a4251 4251 0 0 0-4.006 10.894m-527.18 84.941c12.87 3.207 24.33 8.403 35.161 16.117-2.67 1.713-4.222.246-5.796-.33-15.696-5.75-31.756-10.04-48.543-10.324-17.404-.296-33.12 4.742-46.189 16.75-.607.558-1.305 1.027-2.003 1.468-.25.158-.629.113-.959.161-1.185-.94-.344-1.763.193-2.525 10.244-14.544 24.368-22.284 42.004-23.517 8.646-.605 17.303-.395 26.132 2.2m-59.67-17.828c7.935-9.05 15.141-18.164 20.17-28.829 6.945-14.728 7.265-29.478.56-44.366-.658-1.46-1.87-2.776-1.6-4.759 1.933-.522 2.552 1.099 3.374 2.16 12.59 16.23 13.22 33.694 4.418 51.576-7.246 14.72-18.725 25.73-32.839 34.002-.668.392-1.49.52-3.156 1.075 2.214-4.922 6.172-7.243 9.073-10.859"/></svg>